# xmcd
#
# Track frame offsets:
#	150
#	18124
#	37656
#	47454
#	79585
#	108078
#	140170
#	207433
#	224065
#
# Disc length: 3333 seconds
#
# Revision: 0
# Processed by: cddbd v1.5.2PL0 Copyright (c) Steve Scherf et al.
# Submitted via: audiograbber 1.83.01
#
DISCID=720d0309
DTITLE=Bakerloo - Bakerloo
DYEAR=1969
DGENRE=Blues
TTITLE0=Big Bear Ffoly
TTITLE1=Bring It On Home
TTITLE2=Drivin' Bachwards
TTITLE3=Last Blues
TTITLE4=Gang Bang
TTITLE5=This Worried Feeling
TTITLE6=Son Of Moonshine
TTITLE7=Once Upon A Time
TTITLE8=This Worried Feeling
EXTD=
EXTT0=
EXTT1=
EXTT2=
EXTT3=
EXTT4=
EXTT5=
EXTT6=
EXTT7=
EXTT8=
PLAYORDER=
